<svg version="1" xmlns="http://www.w3.org/2000/svg" width="533.333" height="533.333" viewBox="0 0 400.000000 400.000000"><path d="M239.6 24.5c.4.8.3 2.3-.1 3.2-.5 1-.7 2.5-.6 3.3.2 2.1-4.4 24.7-6.6 31.7-1 3.4-1.8 5-2.1 4-.2-1 .1-3.2.7-4.9.6-1.7 1.1-3.8 1.1-4.7-.1-2.8-1.7.9-2.5 5.6-.4 2.4-1.1 4.3-1.5 4.3-.5 0-.6-1.6-.3-3.6.4-2.5.2-3.9-.8-4.5-1-.6-1-.9-.1-.9.8 0 1.2-1.7 1.1-5.3-.1-4.4-.2-4.8-.9-2.2-.6 2.3-.8 1.2-1-4.5-.1-4.1-.5-9.5-1-12-.7-3.2-.8-.5-.5 9 .3 8 .1 12.9-.4 12.1-1.4-2.1-1.9 2.9-.6 5.3.7 1.4.7 2-.3 2.3-.6.3-1 .8-.7 1.3.3.4.1 1.9-.4 3.2-.6 1.2-1 1.7-1 .9-.1-.8-.9-2-1.8-2.7-1.7-1.3-1.7-1.4-.1-.8 1.6.5 1.7.2 1.2-2.7-.9-4.3-1.4-4.9-1.5-1.8l-.1 2.4-.8-2.5c-.6-1.9-.8-1.1-.9 3.2L217 69h-3.2c-1.8 0-5.8 1.3-8.8 2.8l-5.5 2.7-5.5-2.8c-5.4-2.8-8.5-3-13.7-1-1.4.6-1.5 0-1-4.1.4-3 .3-4.5-.3-4.1-.6.3-1 1.8-1 3.3 0 1.5-.5 3.4-1 4.2-.8 1.1-1-1.1-.8-7.2.1-4.8-.1-9.1-.5-9.4-.4-.4-.8 1.8-.8 4.9-.2 10-.4 11.5-1.1 12.3-1.4 1.3-2-.3-2.8-7.8-.4-4-.8-6.2-.9-4.8-.2 3.5-1.8 1.3-2.5-3.5-.3-2.2-.5-4.1-.6-4.3 0-.1-.4-.2-1-.2-.5 0-.7 1.3-.5 3 .3 1.6.7 4.3 1 6 .8 5.4-1.1 3.1-2.5-2.8-.7-3.1-1.6-6.4-2.2-7.2-.7-1.2-.8-1-.4.5 1.4 5.5 4.6 19.1 4.6 19.8 0 .5-.4.5-1 .2s-.7.1-.4.9c.4 1 .1 1.6-.9 1.6-.9 0-1.7-1.3-2-3.3-.3-1.7-1.4-7-2.6-11.7-1.2-4.7-2.4-9.6-2.7-10.9-.3-1.3-.7-2.1-1-1.8-.3.3.1 4 1 8.2.9 4.3 1.6 8.2 1.6 8.9-.1 2.1-2.9-3.9-4-8.7-1.2-4.7-3.3-7.8-2.3-3.5.4 2.1-5.3-9.9-7.1-14.6-.3-1-.9-1.6-1.2-1.4-.7.8 2.7 10.9 6.6 19.3 4.3 9.3 7 17.2 7 20.5 0 3-2.3 4.6-3.7 2.7-1.3-1.7-6.6-12.7-10.6-22.2-4.9-11.4-12.7-27.4-13.8-28.1-1.5-.9-1 2.3.6 3.6.8.7 1.5 1.6 1.5 2 0 .5 1.5 4.1 3.4 8.2 1.8 4 3.7 8.3 4.1 9.6.4 1.3 2.2 5.7 4.1 9.8 1.8 4.1 3.2 7.4 3 7.4-.3 0-2.1-3-4.2-6.8-5-9.1-15.5-24.9-19.4-29.2-4-4.5-3.2-2.9 5.5 10.5 9.2 14.1 9.5 14.9 4.7 9.7-2.2-2.3-4.5-4.2-5.2-4.2-1.3 0-.8.7 4.7 6.8 2 2.4 12.3 22.4 13.7 27 1.8 5.5-2.8 1.3-11.4-10.6-5.1-7-9.6-12.9-9.9-13.2-.3-.3-2.6-3.1-5-6.3-4.5-5.9-12.6-13.4-17-15.7-1.3-.7.9 1.8 4.8 5.6 6.6 6.2 13.4 14.3 23.4 28.1 2.2 2.9 3.6 5.3 3.2 5.3-.3 0-5.4-4.8-11.2-10.6-5.8-5.8-12.9-12.3-15.7-14.4-5.3-4-19.1-10.3-21-9.7-.6.2.7 1 2.9 1.7 7.5 2.4 19.9 10.4 25.5 16.4 2.2 2.4 2.2 2.6.5 2.1-1.6-.5-1.5-.2.4 1.2 9.4 6.9 21.7 19.7 22.6 23.5.5 2 .2 2.9-1.3 3.7-1.7.9-3.2-.1-11.3-8.4-11.2-11.2-27.1-22.3-38.2-26.6-4.4-1.6-8.1-2.8-8.3-2.6-.3.2 2.2 1.4 5.5 2.6 9.3 3.4 22 12.6 34.6 25 6.3 6.3 11.5 11.8 11.5 12.3 0 1.1-1.7 1-2.5-.1-.7-1.2-15.3-11.6-22.2-15.8-10.6-6.5-26-10.4-40-10.2l-6.8.1 10 1.3c19 2.5 28.4 5.7 40.7 13.9 8.1 5.4 9.4 7 3.1 3.8-7.2-3.7-14.3-5.2-23.7-5.1l-9.1.2 8.5.8c4.7.5 10.5 1.3 13 1.9 4.8 1.2 21.1 8.8 24.5 11.4l2 1.6-2 1.2c-3.3 2-7.5.9-16.6-4.3-4.8-2.8-11.5-5.9-15-7-9.5-2.8-26.7-4.3-36.9-3.2l-8.5 1h14c15.7.1 25.1 1.7 34.8 6 8.4 3.7 13.3 6.6 11.9 7.1-2.6.8-1 2.2 2.6 2.2 2.1 0 4.8.9 6.2 2 4.2 3.2.1 3.5-10.3.9-7.7-2-11.6-2.4-24.2-2.3-15.1 0-25.8 1.4-45.8 5.6-5.3 1.1-9.6 2.3-9.3 2.5.4.4 3.4-.1 23.6-3.7 15.4-2.7 34.6-3.6 43.5-2.1 12 2.1 20.5 4.2 20.5 5.2 0 .5-3.3.9-7.2.9-12.4 0-23.1 3.1-35.3 10.2-2.2 1.3-4.6 2.9-5.3 3.5-.7.7-1.8 1.3-2.4 1.3-.6 0-.9.3-.5.6.3.3 4.5-1.5 9.2-4 13.1-7 21.7-9.6 31.9-9.6 5.6 0 8.6.4 8.6 1.1 0 2.3-3.4 12.6-5.5 16.9-3.6 7.2-7.8 22-8 28.5-.5 12.7-6.3 40.1-10.1 47.6-4 7.9-7.4 22.1-8 33.2-.3 5.6-1 14-1.5 18.7-1.1 9.8-1.1 10.6-.3 17.7.7 6.1 0 6.5-5.9 3.3-2.1-1.1-4.7-2-6-2-5.9 0-12.3 1-13.2 2.2-1.7 2.1-5.3 3.8-8 3.8-1.5 0-3.6 1.1-4.9 2.5-1.3 1.4-2.9 2.5-3.7 2.5-.7 0-2.3.9-3.5 2.1-2.1 2-3.4 2.2-9.7 1.8-5.1-.3-5.2 1.3-.6 10 2.3 4.4 5.9 10.2 7.9 12.8 3.4 4.4 3.9 4.8 7.6 4.5l3.9-.2-2.8 1.5-2.8 1.6L42 320c1.9 2.7 7 4.5 5.5 2-.3-.5-1.3-1-2.1-1s-1.4-.5-1.4-1c0-.6.5-1 1.1-1 .5 0 .8-.4.5-.9-.3-.5.1-1.4.9-2.1 1.2-1 1.5-.9 1.5.4 0 2.5 2.3 1.9 5.4-1.3l2.9-3-3.4-.9-3.4-1 3-.1c3.6-.1 21.2-3.5 23.9-4.7 1.6-.6 1.8-.4 1.3.9-.3.9-.9 4-1.3 6.9-1.3 11.3-3.3 13.9-8 10.3-1.7-1.3-1.7-1.4-.1-1.5 1.6 0 2.1-1.6 2-5.8-.1-.6.5-1.2 1.3-1.2s1.4-.5 1.4-1c0-1.4-2.2-1.3-4.5.3-2.3 1.4-7.4 3.2-12.2 4.2-5 1-4.9 2.5.1 2.5 2.5 0 4.6-.5 4.6-1 0-.6.7-1 1.6-1 1.2 0 1.1.6-.8 2.9-1.3 1.6-2.7 2.5-3.2 2.1-1.1-1.1-6.3.8-7 2.5-.5 1.5 3.4 2.8 5.8 1.9 1.2-.5 1.5-.2.9 1.1-.6 1.7-.2 1.8 4.8 1.1 3-.4 6.3-.8 7.4-.7 1.1 0 2.3-.5 2.7-1.2.5-.8.8-.6.8.6 0 2.8-2.1 4.3-5.4 3.9-2.7-.4-2.9-.3-1.8 1 1.1 1.3.8 1.7-2 2.2-1.8.4-4.4.7-5.7.8-2.1 0-1.9.4 2.5 4.9 5.3 5.4 5.6 5.6 4.8 3.4-.5-1.1.1-1.5 2.4-1.5 1.7 0 3.8-.3 4.7-.6 1.4-.6 1.6-.1 1.3 2.7-.3 3-.6 3.4-2.8 3.1-2.1-.4-2.2-.2-1.1 1.2.7.9 2 1.6 2.8 1.6.8 0 1.2.4.8 1-1.5 2.4 21.2 17.6 39.7 26.5 20.8 10.1 40.6 15.8 64.2 18.6 14 1.6 43.2.6 57.1-2 55.2-10.3 99.8-40.4 132-89.1 4.7-7 11.5-19.7 11.5-21.3 0-1-9.6.7-10.5 1.9-1.2 1.5-16 2-22 .7l-4-.9 3.8-.8c4.8-.9 4.4-2.9-.8-3.7-3.7-.6-9.5.8-9.5 2.3 0 .4 1.4.8 3 .8 3 0 4 1.3 1.9 2.5-.7.5-.6 1.1.4 1.8.7.7 1.8 2.4 2.5 3.9 1.1 2.6.9 2.9-1.8 4.3-3.8 2-3.7 2-5.5-1.5-1.9-3.6-1.9-4 0-4 2.1 0 1.9-1.7-.4-2.3-2-.5-3.5-5.6-2.1-7.1.6-.6.4-1.4-.5-2-.7-.6-1.5-2.6-1.7-4.4l-.3-3.3 7-.4c4.1-.3 6.4-.1 5.6.4-2 1.3 3.8 1.9 7.8.8 2.2-.5 3.1-1.3 2.7-2.2-.3-.8.3-1.7 1.5-2 1-.4 1.9-1.1 1.9-1.7 0-.6 1-.8 2.3-.4 1.4.3 3.2-.1 4.3-.9 2.1-1.6 8.4-2 8.4-.6 0 .5-.9 1.5-2.1 2.3-2 1.3-1.9 1.4 1.7 1.3 2.2-.1 4.8-.4 5.9-.8 2.4-.8 5 .6 4.1 2.2-.4.6-1.9 1.1-3.4 1.1-2 0-2.3.3-1.3.9 1.1.7.4 1.2-2.6 2-2.2.6-5.2 2-6.6 3.1-1.5 1.2-4 2-6.2 2-3.4 0-9.5 2.3-9.5 3.7 0 .7 12.6-.2 17.9-1.3 3.3-.7 3.3-.7 1-2l-2.4-1.2 2.6-.7c1.4-.3 2.9-.5 3.5-.4.5.2 2.6-.5 4.7-1.4 2.9-1.2 3.9-2.3 4.4-4.9.4-1.8.6-3.6.5-4.1-.1-.4.2-.7.8-.7.5 0 1-.5 1-1 0-.6-.9-1-2-1s-2-.5-2-1.1c0-.6.9-.9 2-.6 2.6.7 5.1-2.8 5.5-7.7.2-1.9.8-4.3 1.4-5.4 1.8-3.4 1.4-3.7-4.9-3.5-7.1.2-15.7 1.9-18.5 3.7-1.1.7-4.6 1.4-7.9 1.5-3.2.1-6.6.5-7.5 1-.9.4-3.8 1.4-6.6 2-2.7.7-5.3 1.8-5.7 2.4-.6.9-1 .9-1.7-.2-1.2-1.8-5.2-.5-4.4 1.5.3.9.9 1.1 1.2.6.3-.5 2.1-.9 3.9-.9 3 0 3.1.1 1.6 1.8-.9 1-2.2 1.5-3 1.2-.7-.3-2.8.7-4.5 2.1-1.7 1.4-3.4 2.4-3.8 2.2-.9-.6-2.8-11.7-3.6-21.1-1.8-21.8-5.4-34.8-15.5-55.3-4.7-9.8-9.8-23.1-11-29.2-2-9.5-10.1-37.3-12.1-41.2-3.2-6.2-8-19-7.4-19.6.3-.3 3.8-1.1 7.8-1.8 8.2-1.5 22.9-.4 29.4 2 2.1.8 7.9 2.6 12.8 4.1 5 1.5 9.9 3 11 3.5 6.4 2.5 11.7 4.1 12.2 3.6.3-.3-.3-.8-1.3-1.1-1-.4-3.2-1.2-4.9-2-1.6-.7-3.9-1.5-5-1.8-1.1-.3-6.5-2.1-12-4-12.7-4.5-20.3-6.4-28.5-7.2-3.6-.3-8.1-.9-10-1.2l-3.5-.5L294 92c10.1-3.3 18.5-4.6 53.5-8.5l13-1.4-13 .4c-26.4 1-49.4 4.6-60.3 9.6-9.7 4.4-10.9 3.2-2.3-2.5 7.2-4.8 19.8-10.5 23.6-10.6 1.1-.1 3.8-.7 6-1.6 4.6-1.6 14.7-3.2 28.5-4.4 8.7-.8 8.4-.8-4.5-.5-22.9.7-42.1 6.1-55.9 16-3.5 2.5-6.9 4.5-7.6 4.5-.7 0-2.9-1.2-4.7-2.6l-3.5-2.6 3.4-3.5c4.6-4.8 15.4-11.8 21.3-13.7 4.8-1.7 21.1-4.2 31-4.9 3.4-.2 2.5-.4-3-.5-4.4-.1-12 .5-17 1.3-4.9.8-9.1 1.3-9.2 1.1-.4-.4 8-4.5 14.2-7.1 3.5-1.4 15.3-4.8 20.9-6 2.8-.6 3.2-1.5.7-1.5-3.3 0-20.6 4.7-26.5 7.3-2.8 1.2-7.8 3.7-11.1 5.5-3.3 1.9-7.1 3.8-8.5 4.1-1.4.4-2.5 1.2-2.5 1.8 0 .6-2.6 3.2-5.9 5.8-8.3 6.8-5.4 2.5 5.3-7.8 9.2-8.9 24.1-19.4 34.4-24.2 3.1-1.5 5.7-2.9 5.7-3.1 0-1.6-22.6 8.6-24.1 10.9-.4.5-1.1.7-1.7.3C291.6 52 274 67 268.4 75.5c-.8 1.3-3.1 3.1-5 4-3.6 1.7-4.5 3.5-1.7 3.5 1.2 0 1.4.3.7 1-1.3 1.3-7.4-1.6-7.4-3.5s12.5-17.4 21.2-26.3C282.9 47.3 291 41 293 41c.5 0 1.4-.9 2-1.9.5-1.1 2.6-2.9 4.7-4.2 2-1.3 3.1-2.5 2.5-2.7-1.2-.4-10.4 5.6-20 13.1-3.5 2.7-6.5 4.7-6.8 4.5-.5-.6 8.6-10.9 12.9-14.6 1.5-1.3 3.8-3.3 5-4.3 1.9-1.7 2-1.8.2-1.2-4.2 1.5-18.4 15.4-25.9 25.4C261 63.9 255.2 70 253.5 70c-1.9 0-2.8 1.8-1.1 2.2 1.1.2.9 1-.9 3.3-2.6 3.1-4.7 2.7-2.7-.5.7-1.1 1.2-2.5 1.2-3.2 0-.7 2.1-5.3 4.6-10.2 2.5-4.8 4.3-9 4.1-9.2-.4-.4-2.8 3.7-8.7 14.8-2.2 4.3-4.5 7.8-5 7.8-1.7 0-1.2-1 6.8-14.2 4.2-7.1 8.2-13.7 8.7-14.6 2-3.3 5-7.7 5.6-8.2 1.7-1.4 10.8-15 10-15-.5 0-4.5 4.6-8.8 10.1C257 46.5 253 51.3 253 50.5c0-.3.9-2.5 1.9-4.9 3.2-7 6.1-14.6 5.6-14.6-.3 0-5 9.1-10.5 20.1-5.5 11.1-10.2 20.4-10.5 20.7-.3.3-1 .1-1.6-.5-1.6-1.6.7-8.3 10.2-29.1 4-8.7 3.6-10.2-.5-1.9-1.8 3.7-4 7.5-4.9 8.5-.9.9-2.9 5.8-4.6 10.7-1.6 4.9-3.5 9.1-4.1 9.3-1.3.5-1.3.1.9-9.3 4.2-17.6 6.9-36.5 5.2-36.5-.6 0-.8.7-.5 1.5zM291 56.8c-1.9 1.5-5.3 4.3-7.5 6.2-7 6.1-9.2 7.5-3.9 2.4 5.5-5.3 7.5-7 11.4-9.7 3.8-2.7 3.9-1.9 0 1.1zm-43.7 7.5c-2 3.7-3.8 6.5-4.1 6.3-.2-.3 1.3-3.4 3.3-7.1 2.1-3.6 3.9-6.4 4.1-6.2.2.2-1.2 3.4-3.3 7zm-20.8.7c-.4 1.7-.9 2.9-1.2 2.6-.3-.2-.2-1.9.2-3.6.4-1.7.9-2.9 1.2-2.6.3.2.2 1.9-.2 3.6zM146 71.2c2.6 4.6 3.7 7.5 3.1 8.1-.6.6-2.4-1.9-5-7.2-2.3-4.4-4.1-8.3-4.1-8.6 0-1.7 2.3 1.3 6 7.7zm23.9-1.9c.1 1.6-.3 2.6-.9 2.2-.5-.3-1-2.5-.9-4.8 0-3.3.2-3.8.9-2.2.5 1.1.9 3.3.9 4.8zM284.5 97c-1.1.5-2.7.9-3.5.9-1.3.1-1.3 0 0-.9.8-.5 2.4-.9 3.5-.9h2l-2 .9zm91.3 158.8c.8.6.1 1.2-2.3 1.9-3.6 1.1-4.4.6-2.3-1.5 1.4-1.4 2.8-1.5 4.6-.4zm-11.4 2.3c-3.1 1.2-3.9 1-1.9-.5 1.1-.8 2.4-1.2 2.9-.8.5.3.1.9-1 1.3zm-4.5.6c1.1.9-1.8 2.1-6.3 2.7l-5 .6 2.3-2.4c1.9-2 3-2.4 5.5-1.9 1.7.3 3.3.8 3.5 1zm17.4 7c-.7.2-1.9.2-2.5 0-.7-.3-.2-.5 1.2-.5s1.9.2 1.3.5zM350 290.4c0 .2-.9.6-2 .9-1.1.3-2 .1-2-.4s.9-.9 2-.9 2 .2 2 .4zm-5.6 16.2c.4 1-.2 1.4-2.2 1.3-1.5 0-2.2-.3-1.5-.5.7-.3.9-1.2.6-2-.3-1 0-1.2 1-.8.9.3 1.8 1.2 2.1 2zM360 312c0 .5-.5 1-1.1 1-.5 0-.7-.5-.4-1 .3-.6.8-1 1.1-1 .2 0 .4.4.4 1zM73.7 335.2c-.3.8-.6.5-.6-.6-.1-1.1.2-1.7.5-1.3.3.3.4 1.2.1 1.9zm.3 3.8c0 .5-.7 1-1.6 1-.8 0-1.2-.5-.9-1 .3-.6 1-1 1.6-1 .5 0 .9.4.9 1z"/><path d="M255.5 24c-.3.5-.1 1 .4 1 .6 0 1.1-.5 1.1-1 0-.6-.2-1-.4-1-.3 0-.8.4-1.1 1zM251.7 30.7c-.4.3-.7 1.1-.7 1.7 0 .6.5.5 1.2-.2.6-.6.9-1.4.7-1.7-.3-.3-.9-.2-1.2.2zM236.1 36.6c0 1.1.3 1.4.6.6.3-.7.2-1.6-.1-1.9-.3-.4-.6.2-.5 1.3zM154.1 41.6c0 1.1.3 1.4.6.6.3-.7.2-1.6-.1-1.9-.3-.4-.6.2-.5 1.3zM159.1 41.6c0 1.1.3 1.4.6.6.3-.7.2-1.6-.1-1.9-.3-.4-.6.2-.5 1.3zM124 44c0 .5.5 1 1.1 1 .5 0 .7-.5.4-1-.3-.6-.8-1-1.1-1-.2 0-.4.4-.4 1zM240.5 44.1c-.4.6-.5 1.2-.2 1.5.2.3.7-.2 1-1.1.7-1.7.1-2-.8-.4zM218.2 51c0 1.4.2 1.9.5 1.2.2-.6.2-1.8 0-2.5-.3-.6-.5-.1-.5 1.3zM216 55c0 1.1.4 2 .9 2s.7-.9.4-2c-.3-1.1-.7-2-.9-2-.2 0-.4.9-.4 2zM211 60.2c0 .9.5 2 1 2.3.6.3 1 1.5 1 2.6 0 1 .5 1.9 1.1 1.9 1.2 0 .3-3.6-1.7-6.5-1.2-1.6-1.4-1.7-1.4-.3zM183.1 63.6c0 1.1.3 1.4.6.6.3-.7.2-1.6-.1-1.9-.3-.4-.6.2-.5 1.3zM75.8 78.7c.7.3 1.6.2 1.9-.1.4-.3-.2-.6-1.3-.5-1.1 0-1.4.3-.6.6zM130.5 80c.3.5 1.1 1 1.6 1 .6 0 .7-.5.4-1-.3-.6-1.1-1-1.6-1-.6 0-.7.4-.4 1zM102.8 95.7c.6.2 1.8.2 2.5 0 .6-.3.1-.5-1.3-.5-1.4 0-1.9.2-1.2.5zM361.8 269.7c-3.2.8-2 2.6 1.3 1.9 1.7-.3 3.5-.6 4-.6s.9-.5.9-1c0-1-3-1.2-6.2-.3zM352 287c0 .5.5 1 1.1 1 .5 0 .7-.5.4-1-.3-.6-.8-1-1.1-1-.2 0-.4.4-.4 1zM59 311.1c0 .5.5.7 1 .4.6-.3 1-.8 1-1.1 0-.2-.4-.4-1-.4-.5 0-1 .5-1 1.1zM51.5 332c.4.6 1.1.8 1.6.5 1.4-.9 1.1-1.5-.7-1.5-.8 0-1.2.5-.9 1zM55.1 334.4c1.2 1 7.9 1.6 7.9.6 0-.5-1.9-1-4.2-1-2.3 0-3.9.2-3.7.4z"/></svg>