<?xml version="1.0" standalone="no"?>
<!DOCTYPE svg PUBLIC "-//W3C//DTD SVG 20010904//EN"
 "http://www.w3.org/TR/2001/REC-SVG-20010904/DTD/svg10.dtd">
<svg version="1.0" xmlns="http://www.w3.org/2000/svg"
 width="700.000000pt" height="700.000000pt" viewBox="0 0 700.000000 700.000000"
 preserveAspectRatio="xMidYMid meet">
<metadata>
Created by potrace 1.11, written by Peter Selinger 2001-2013
</metadata>
<g transform="translate(0.000000,700.000000) scale(0.100000,-0.100000)"
fill="#000000" stroke="none">
<path d="M2142 6962 c7 -25 6 -65 -2 -131 -7 -52 -9 -118 -5 -148 3 -29 3 -53
-2 -53 -4 0 -53 15 -108 34 -257 87 -574 88 -787 2 -70 -28 -191 -97 -236
-134 l-33 -27 168 -1 c133 0 189 -5 271 -22 309 -67 589 -207 786 -393 47 -45
86 -87 86 -93 0 -7 -46 -31 -102 -55 -117 -49 -201 -94 -292 -156 -58 -39 -64
-41 -74 -25 -31 51 -235 167 -362 208 -298 96 -459 22 -524 -241 -71 -286 30
-579 241 -699 l52 -29 -75 -152 c-41 -84 -79 -154 -85 -155 -16 -6 -172 104
-232 165 -142 144 -232 330 -273 567 -20 111 -14 397 9 489 8 31 13 57 12 57
-4 0 -114 -150 -178 -241 -96 -138 -192 -197 -358 -224 l-37 -5 15 -77 c43
-228 174 -436 380 -604 l72 -60 -50 -62 c-161 -198 -283 -498 -333 -823 -15
-96 -24 -504 -11 -504 3 0 40 27 81 61 96 76 288 170 414 204 154 41 156 39
58 -64 -151 -158 -213 -326 -277 -751 -53 -346 -88 -465 -182 -610 -26 -41
-45 -78 -40 -83 15 -15 228 -37 364 -37 148 0 264 18 329 51 20 10 39 19 40
19 2 0 3 -80 4 -178 0 -150 4 -192 23 -272 30 -125 96 -290 187 -473 82 -162
124 -276 124 -332 0 -33 2 -36 23 -30 150 46 326 190 418 345 39 66 99 221 99
256 0 8 4 13 9 10 4 -3 11 -76 14 -163 9 -261 50 -427 172 -692 81 -177 100
-234 115 -341 6 -47 14 -88 18 -92 12 -11 173 41 271 88 52 25 122 65 156 89
84 60 193 171 251 255 26 38 50 70 54 70 3 0 14 -26 24 -57 49 -158 144 -252
454 -448 68 -42 150 -102 182 -132 l59 -54 66 56 c36 30 144 107 240 170 256
169 337 252 390 398 13 34 27 63 32 64 6 2 30 -27 54 -64 85 -131 225 -251
389 -334 83 -42 278 -111 291 -104 3 3 9 38 12 78 9 101 47 218 119 361 116
232 177 472 181 718 1 70 5 124 8 120 4 -4 18 -43 33 -87 67 -205 212 -372
411 -471 l90 -46 7 29 c30 128 52 184 143 373 170 353 200 460 200 723 0 92 0
167 1 167 0 0 18 -9 40 -19 83 -40 123 -46 329 -46 120 0 235 5 288 14 l88 13
-18 28 c-136 213 -157 280 -223 719 -62 404 -116 541 -285 720 l-70 74 42 -7
c141 -22 369 -123 501 -223 46 -34 85 -63 88 -63 10 0 3 246 -11 367 -42 377
-175 716 -380 968 l-45 54 47 38 c190 153 310 315 373 503 25 74 51 200 41
200 -35 1 -150 34 -191 55 -64 33 -146 108 -196 181 -21 30 -38 54 -38 54 -1
0 -1 -66 -2 -148 -2 -317 -100 -583 -284 -772 -65 -68 -202 -170 -227 -170 -7
0 -153 281 -153 295 0 3 29 23 65 46 81 51 136 113 180 203 49 101 65 173 65
297 0 182 -59 348 -147 415 -107 81 -326 62 -548 -47 -82 -40 -213 -131 -222
-155 -3 -8 -34 7 -96 48 -89 59 -319 178 -344 178 -30 0 -8 33 65 100 255 235
646 401 1011 428 l95 7 -85 52 c-101 62 -201 102 -329 134 -79 19 -122 23
-255 23 -139 0 -174 -3 -265 -26 -58 -15 -129 -36 -158 -47 -69 -28 -74 -27
-71 12 1 17 -1 91 -5 163 -6 93 -5 138 3 153 11 20 10 21 -26 17 -21 -3 -92
-8 -158 -11 -409 -19 -828 -146 -1082 -329 l-92 -66 -73 49 c-296 200 -704
333 -1063 347 -71 2 -153 6 -181 8 l-52 4 10 -36z m1103 -1264 c82 -21 178
-79 247 -149 l68 -69 67 68 c352 349 906 119 1243 -518 l75 -142 78 6 c94 8
111 1 189 -81 195 -205 354 -641 318 -870 -16 -96 -70 -192 -213 -378 -227
-294 -316 -443 -358 -601 -18 -69 -20 -93 -13 -184 24 -303 -14 -569 -112
-795 -141 -325 -399 -626 -758 -883 l-46 -33 0 58 c-1 68 -24 195 -32 173 -3
-8 -17 -52 -31 -97 -31 -96 -96 -243 -108 -243 -5 0 -9 17 -9 38 0 51 -22 121
-56 179 -27 46 -27 47 -37 23 -59 -146 -160 -330 -180 -330 -17 0 -58 68 -131
219 l-64 133 -25 -43 c-30 -54 -47 -106 -56 -173 l-7 -51 -31 60 c-35 67 -86
209 -98 270 l-8 40 -14 -45 c-7 -25 -16 -80 -20 -122 -3 -43 -9 -78 -13 -78
-12 0 -157 106 -241 176 -218 182 -439 468 -555 720 -39 84 -84 246 -84 303 0
20 -12 83 -26 141 -25 100 -26 115 -22 300 6 225 -3 273 -74 413 -54 109 -111
191 -262 382 -151 190 -212 279 -237 346 -24 62 -25 208 -3 317 50 248 195
538 329 661 63 56 96 67 180 56 l55 -6 31 68 c44 99 123 233 189 322 236 318
582 488 855 419z"/>
<path d="M2490 4579 c-80 -32 -153 -118 -185 -217 -26 -83 -18 -219 19 -299
71 -156 224 -219 355 -147 191 103 227 424 68 593 -64 67 -182 100 -257 70z"/>
<path d="M4455 4566 c-65 -31 -117 -86 -152 -161 -25 -54 -28 -70 -28 -170 0
-105 2 -114 33 -177 57 -117 171 -190 269 -172 93 16 179 89 225 190 19 41 23
66 23 154 0 125 -22 191 -87 265 -80 91 -186 117 -283 71z"/>
<path d="M3295 3699 c-142 -25 -263 -62 -347 -106 l-68 -35 0 -125 c0 -133 10
-173 51 -213 30 -28 160 -91 354 -173 l150 -62 7 -345 6 -345 -26 -22 c-74
-63 -196 -136 -272 -164 -117 -44 -275 -52 -401 -20 -142 36 -315 130 -464
253 l-39 33 33 -49 c235 -341 513 -521 780 -503 165 11 268 62 465 230 l45 39
69 -60 c92 -79 150 -118 229 -154 262 -118 527 -48 786 207 66 66 160 176 207
245 l25 35 -40 -33 c-139 -114 -263 -185 -405 -233 -238 -79 -463 -37 -690
131 l-80 60 0 288 c0 159 3 316 6 348 l6 59 132 54 c218 89 349 156 384 195
35 40 40 68 44 223 l3 102 -90 42 c-203 93 -333 119 -580 118 -121 0 -202 -6
-280 -20z"/>
</g>
</svg>
